<?xml version="1.0" encoding="UTF-8" standalone="no"?>
<svg
   xmlns:dc="http://purl.org/dc/elements/1.1/"
   xmlns:cc="http://creativecommons.org/ns#"
   xmlns:rdf="http://www.w3.org/1999/02/22-rdf-syntax-ns#"
   xmlns:svg="http://www.w3.org/2000/svg"
   xmlns="http://www.w3.org/2000/svg"
   xmlns:sodipodi="http://sodipodi.sourceforge.net/DTD/sodipodi-0.dtd"
   xmlns:inkscape="http://www.inkscape.org/namespaces/inkscape"
   viewBox="0 0 690.91522 690.91522"
   version="1.1"
   id="svg8"
   sodipodi:docname="battle-axe.svg"
   width="690.91522"
   height="690.91522"
   inkscape:version="0.92.3 (2405546, 2018-03-11)">
  <metadata
     id="metadata14">
    <rdf:RDF>
      <cc:Work
         rdf:about="">
        <dc:format>image/svg+xml</dc:format>
        <dc:type
           rdf:resource="http://purl.org/dc/dcmitype/StillImage" />
        <dc:title></dc:title>
      </cc:Work>
    </rdf:RDF>
  </metadata>
  <defs
     id="defs12" />
  <sodipodi:namedview
     pagecolor="#ffffff"
     bordercolor="#666666"
     borderopacity="1"
     objecttolerance="10"
     gridtolerance="10"
     guidetolerance="10"
     inkscape:pageopacity="0"
     inkscape:pageshadow="2"
     inkscape:window-width="1024"
     inkscape:window-height="740"
     id="namedview10"
     showgrid="false"
     inkscape:pagecheckerboard="true"
     fit-margin-top="0"
     fit-margin-left="0"
     fit-margin-right="0"
     fit-margin-bottom="0"
     inkscape:zoom="0.4609375"
     inkscape:cx="369.32202"
     inkscape:cy="384.50846"
     inkscape:window-x="0"
     inkscape:window-y="0"
     inkscape:window-maximized="1"
     inkscape:current-layer="svg8" />
  <circle
     style="fill:#ffffff;fill-opacity:1;stroke:#00f900;stroke-width:0.13397647;stroke-miterlimit:4;stroke-dasharray:none;stroke-opacity:1"
     id="path4524"
     cx="345.45761"
     cy="345.45761"
     r="345.39062"
     inkscape:export-xdpi="20"
     inkscape:export-ydpi="20" />
  <g
     class=""
     style="fill:#000000"
     id="g6"
     transform="matrix(1.1053863,0,0,1.1053863,96.017947,22.308129)">
    <path
       d="M 240.094,19.594 C 183.404,19.958 129.212,48.648 88.5,91.938 35.072,148.748 6.552,229.845 27.47,302.031 43.8,293.234 60.227,286.044 76.406,280.657 70.079,157.497 165.653,69.735 276.436,70.313 c 4.255,-13.365 10.268,-27.308 18.127,-41.874 -16.323,-5.43 -32.736,-8.36 -48.97,-8.782 -1.833,-0.047 -3.67,-0.074 -5.5,-0.062 z M 271.28,88.97 c -97.556,1.745 -179.913,77.1 -176.373,186.31 10.986,-2.73 21.788,-4.582 32.28,-5.436 14.59,-1.187 28.69,-0.463 41.783,2.437 L 278.312,162.94 c -5.26,-12.1 -8.473,-25.024 -9.344,-38.75 -0.716,-11.256 0.14,-22.983 2.592,-35.22 -0.093,0.002 -0.187,0 -0.28,0 z m 60.845,60.718 -16.875,16.875 30.5,30.437 16.813,-16.813 -30.438,-30.5 z m -37.125,23 -119.375,119.375 44.625,44.562 119.313,-119.313 z m 189.875,46.093 c -14.466,7.808 -28.318,13.807 -41.594,18.064 0.75,111.013 -87.243,206.8 -210.686,200.28 -5.39,16.104 -12.552,32.462 -21.313,48.72 72.19,20.922 153.313,-7.6 210.126,-61.03 57.045,-53.65 88.516,-130.72 63.47,-206.033 z m -136,15.657 -108.188,108.187 c 3.23,13.563 4.086,28.245 2.844,43.47 -0.862,10.58 -2.752,21.476 -5.53,32.56 109.585,3.718 185.128,-79.008 186.594,-176.905 -12.342,2.506 -24.16,3.403 -35.5,2.688 -14.287,-0.9 -27.698,-4.347 -40.22,-10 z M 169.5,312.313 20.094,461.72 V 494 H 48.75 L 199.938,342.812 169.5,312.312 Z"
       id="path4"
       style="fill:#000000;fill-opacity:1"
       inkscape:connector-curvature="0" />
  </g>
</svg>
