<?xml version="1.0" encoding="UTF-8" standalone="no"?>
<svg
   xmlns:dc="http://purl.org/dc/elements/1.1/"
   xmlns:cc="http://creativecommons.org/ns#"
   xmlns:rdf="http://www.w3.org/1999/02/22-rdf-syntax-ns#"
   xmlns:svg="http://www.w3.org/2000/svg"
   xmlns="http://www.w3.org/2000/svg"
   xmlns:sodipodi="http://sodipodi.sourceforge.net/DTD/sodipodi-0.dtd"
   xmlns:inkscape="http://www.inkscape.org/namespaces/inkscape"
   viewBox="0 0 690.91522 690.91522"
   version="1.1"
   id="svg8"
   sodipodi:docname="bow.svg"
   width="690.91522"
   height="690.91522"
   inkscape:export-filename="/home/samuel/Web/Gea/img/icons/bow.png"
   inkscape:export-xdpi="26.719999"
   inkscape:export-ydpi="26.719999"
   inkscape:version="0.92.3 (2405546, 2018-03-11)">
  <metadata
     id="metadata14">
    <rdf:RDF>
      <cc:Work
         rdf:about="">
        <dc:format>image/svg+xml</dc:format>
        <dc:type
           rdf:resource="http://purl.org/dc/dcmitype/StillImage" />
        <dc:title></dc:title>
      </cc:Work>
    </rdf:RDF>
  </metadata>
  <defs
     id="defs12" />
  <sodipodi:namedview
     pagecolor="#ffffff"
     bordercolor="#666666"
     borderopacity="1"
     objecttolerance="10"
     gridtolerance="10"
     guidetolerance="10"
     inkscape:pageopacity="0"
     inkscape:pageshadow="2"
     inkscape:window-width="1024"
     inkscape:window-height="740"
     id="namedview10"
     showgrid="false"
     inkscape:pagecheckerboard="true"
     fit-margin-top="0"
     fit-margin-left="0"
     fit-margin-right="0"
     fit-margin-bottom="0"
     inkscape:zoom="0.65186406"
     inkscape:cx="125.61332"
     inkscape:cy="309.9858"
     inkscape:window-x="0"
     inkscape:window-y="0"
     inkscape:window-maximized="1"
     inkscape:current-layer="svg8" />
  <circle
     style="fill:#ffffff;fill-opacity:1;stroke:#00f900;stroke-width:0.13397647;stroke-miterlimit:4;stroke-dasharray:none;stroke-opacity:1"
     id="path4524"
     cx="345.45761"
     cy="345.45761"
     r="345.39062"
     inkscape:export-xdpi="20"
     inkscape:export-ydpi="20" />
  <g
     class=""
     id="g6"
     style="fill:#000000"
     transform="translate(78.530795,98.850373)">
    <path
       d="m 492.656,20.406 -118.594,56.22 39.813,9.374 -86.97,86.97 -305.5,259.374 0.69,0.687 104.75,-47.467 -46.376,105.843 0.905,0.906 272.5,-319.875 73.22,-73.218 9.342,39.81 z m -473.25,0.063 c -1.347,23.43 5,39.947 16.563,52.218 L 60.062,374.967 77.624,360.093 55.904,87.655 C 113.879,119.609 225,112.82 272.811,194.375 l 66.625,-56.564 1.22,-1.218 C 292.74,38.666 86.01,99.716 19.406,20.47 Z m 359.531,151.56 -1.156,1.157 -57.25,67.188 c 82.006,47.945 75.587,159.267 107.283,218.03 l -272.157,-24.5 -14.812,17.408 301.562,27.125 c 12.48,12.283 29.4,19.084 53.688,17.687 -79.95,-67.2 -18.36,-275.754 -117.156,-324.094 z"
       id="path4"
       inkscape:connector-curvature="0"
       style="fill:#000000;fill-opacity:1" />
  </g>
</svg>
