<?xml version="1.0" encoding="UTF-8" standalone="no"?>
<svg
   xmlns:dc="http://purl.org/dc/elements/1.1/"
   xmlns:cc="http://creativecommons.org/ns#"
   xmlns:rdf="http://www.w3.org/1999/02/22-rdf-syntax-ns#"
   xmlns:svg="http://www.w3.org/2000/svg"
   xmlns="http://www.w3.org/2000/svg"
   xmlns:sodipodi="http://sodipodi.sourceforge.net/DTD/sodipodi-0.dtd"
   xmlns:inkscape="http://www.inkscape.org/namespaces/inkscape"
   viewBox="0 0 690.91523 690.91522"
   version="1.1"
   id="svg8"
   sodipodi:docname="sword.svg"
   width="690.91522"
   height="690.91522"
   inkscape:export-filename="/home/samuel/Web/Gea/img/icons/sword3.png"
   inkscape:export-xdpi="20.459999"
   inkscape:export-ydpi="20.459999"
   inkscape:version="0.92.3 (2405546, 2018-03-11)">
  <metadata
     id="metadata14">
    <rdf:RDF>
      <cc:Work
         rdf:about="">
        <dc:format>image/svg+xml</dc:format>
        <dc:type
           rdf:resource="http://purl.org/dc/dcmitype/StillImage" />
        <dc:title></dc:title>
      </cc:Work>
    </rdf:RDF>
  </metadata>
  <defs
     id="defs12" />
  <sodipodi:namedview
     pagecolor="#ffffff"
     bordercolor="#666666"
     borderopacity="1"
     objecttolerance="10"
     gridtolerance="10"
     guidetolerance="10"
     inkscape:pageopacity="0"
     inkscape:pageshadow="2"
     inkscape:window-width="1024"
     inkscape:window-height="740"
     id="namedview10"
     showgrid="false"
     inkscape:pagecheckerboard="true"
     fit-margin-top="0"
     fit-margin-left="0"
     fit-margin-right="0"
     fit-margin-bottom="0"
     inkscape:zoom="0.65186406"
     inkscape:cx="97.863461"
     inkscape:cy="331.11838"
     inkscape:window-x="0"
     inkscape:window-y="0"
     inkscape:window-maximized="1"
     inkscape:current-layer="svg8" />
  <circle
     style="fill:#ffffff;fill-opacity:1;stroke:#00f900;stroke-width:0.13397647;stroke-miterlimit:4;stroke-dasharray:none;stroke-opacity:1"
     id="path4524"
     cx="345.45761"
     cy="345.45761"
     r="345.39062"
     inkscape:export-xdpi="20"
     inkscape:export-ydpi="20" />
  <path
     style="fill:#000000;fill-opacity:1"
     inkscape:connector-curvature="0"
     id="path4"
     d="m 569.27609,106.63153 -83.42,14.865 -211.852,211.852 c 3.262,4.815 5.37,10.72 5.37,16.932 0,5.863 -1.71,11.35 -4.643,15.996 -16.71045,46.04551 -43.53341,2.15709 -55.717,15.319 l -53.99903,-54.30797 -15.48997,15.49097 58.314,58.314 c -1.613,5.075 -2.49,10.47 -2.49,16.063 0,7.666 1.65,14.96 4.592,21.564 -43.67948,41.18336 -86.45213,86.45191 -105.545,105.547 l 27.246,27.246 c 43.77653,-42.08607 42.96057,-42.95983 105.565,-105.566 6.586,2.922 13.858,4.562 21.498,4.562 5.593,0 10.988,-0.877 16.063,-2.49 l 58.363,58.363 16.25601,-17.79207 c -82.87092,-74.13388 12.06199,15.43907 -55.12401,-51.74693 15.05,-17.48204 -35.97197,-43.93807 15.51,-55.08 4.703,-3.04 10.288,-4.817 16.265,-4.816 6.21,0 11.776,1.77 16.52,4.955 l 211.854,-211.853 z m -244.696,257.907 -13.214,-13.213 c 219.22686,-227.30619 213.82619,-181.08105 13.214,13.213 z m -65.875,87.281 c -172.47006,159.39713 -86.23503,79.69856 0,0 z"
     sodipodi:nodetypes="cccscccccsccccscccccccccccccc" />
</svg>
